<?xml version="1.0" encoding="UTF-8" standalone="no"?>
<!-- Uploaded to: SVG Repo, www.svgrepo.com, Generator: SVG Repo Mixer Tools -->

<svg
    version="1.1"
    id="Icons"
    viewBox="0 0 32 32"
    xml:space="preserve"
    sodipodi:docname="learning.svg"
    inkscape:version="1.2.2 (732a01da63, 2022-12-09)"
    xmlns:inkscape="http://www.inkscape.org/namespaces/inkscape"
    xmlns:sodipodi="http://sodipodi.sourceforge.net/DTD/sodipodi-0.dtd"
    xmlns="http://www.w3.org/2000/svg"
    xmlns:svg="http://www.w3.org/2000/svg"><defs
    id="defs17" /><sodipodi:namedview
    id="namedview15"
    pagecolor="#ffffff"
    bordercolor="#666666"
    borderopacity="1.0"
    inkscape:showpageshadow="2"
    inkscape:pageopacity="0.0"
    inkscape:pagecheckerboard="0"
    inkscape:deskcolor="#d1d1d1"
    showgrid="false"
    inkscape:zoom="32.09375"
    inkscape:cx="16"
    inkscape:cy="16"
    inkscape:window-width="3840"
    inkscape:window-height="2071"
    inkscape:window-x="-9"
    inkscape:window-y="-9"
    inkscape:window-maximized="1"
    inkscape:current-layer="Icons" />
<style
    type="text/css"
    id="style2">
	.st0{fill:none;stroke:#000000;stroke-width:2;stroke-linecap:round;stroke-linejoin:round;stroke-miterlimit:10;}
</style>
<line
    class="st0"
    x1="23"
    y1="24"
    x2="23"
    y2="29"
    id="line4" />
<path
    class="st0"
    d="M10,21V10c0-1.7-1.3-3-3-3H1v11h6C8.7,18,10,19.3,10,21L10,21"
    id="path6"
    style="stroke-width:1.1;stroke-dasharray:none" />
<path
    class="st0"
    d="M10,21V10c0-1.7,1.3-3,3-3h6v11h-6C11.3,18,10,19.3,10,21L10,21"
    id="path8"
    style="stroke-width:1.1;stroke-dasharray:none" />
<path
    class="st0"
    d="M12.2,18.1c0.3,0.3,0.5,0.6,0.8,0.9v8"
    id="path10" />
<path
    class="st0"
    d="M22,24h4c1.1,0,2-0.9,2-2v-4h3l-3-6c0-5-4-9-9-9c-3.4,0-6.4,1.9-7.9,4.7"
    id="path12"
    style="stroke-width:1.1;stroke-dasharray:none" />
</svg>
