<?xml version="1.0" encoding="iso-8859-1"?>
<!-- Uploaded to: SVG Repo, www.svgrepo.com, Generator: SVG Repo Mixer Tools -->
<svg version="1.1" id="Layer_1" xmlns="http://www.w3.org/2000/svg" xmlns:xlink="http://www.w3.org/1999/xlink" 
	 viewBox="0 0 512 512" xml:space="preserve">
<circle style="fill:#E6F3FF;" cx="256" cy="256" r="256"/>
<path style="fill:#CFDBE6;" d="M508.763,296.729L326.68,114.647L207.731,265.769l-93.091,131.31l113.395,113.395
	C237.221,511.472,246.548,512,256,512C383.522,512,489.251,418.754,508.763,296.729z"/>
<rect x="185.32" y="114.64" style="fill:#90DFAA;" width="141.36" height="141.36"/>
<rect x="255.431" y="114.64" style="fill:#84D39A;" width="71.249" height="141.36"/>
<rect x="114.64" y="255.724" style="fill:#F1543F;" width="141.36" height="141.36"/>
<rect x="184.751" y="255.724" style="fill:#C1321F;" width="71.249" height="141.36"/>
<rect x="256" y="255.724" style="fill:#FFD15D;" width="141.36" height="141.36"/>
<rect x="326.68" y="255.724" style="fill:#F9B54C;" width="70.68" height="141.36"/>
<path style="fill:#2C9984;" d="M294.896,230.809L264.994,141.1c-1.291-3.872-4.915-6.484-8.995-6.484
	c-4.081,0-7.704,2.612-8.995,6.484L217.1,230.809c-1.657,4.968,1.029,10.337,5.997,11.993c4.965,1.655,10.337-1.027,11.993-5.997
	l7.808-23.421H269.1l7.808,23.421c1.326,3.974,5.023,6.487,8.994,6.487c0.993-0.002,2.005-0.159,3-0.49
	C293.869,241.145,296.553,235.777,294.896,230.809z M249.22,194.42l6.78-20.34l6.78,20.34L249.22,194.42L249.22,194.42z"/>
<path style="fill:#21826F;" d="M294.896,230.809L264.994,141.1c-1.291-3.872-4.915-6.484-8.995-6.484
	c-0.195,0-0.381,0.034-0.574,0.045v41.141l0.574-1.722l6.78,20.34h-7.354v18.963h13.674l7.808,23.421
	c1.326,3.974,5.023,6.487,8.994,6.487c0.993-0.002,2.005-0.159,3-0.49C293.869,241.145,296.553,235.777,294.896,230.809z"/>
<path style="fill:#FFD15D;" d="M221.079,304.709c0-17.348-14.114-31.46-31.46-31.46h-26.953c-5.236,0-9.481,4.246-9.481,9.481
	v87.912c0,5.236,4.246,9.481,9.481,9.481h26.953c17.348,0,31.46-14.114,31.46-31.46c0-8.549-3.437-16.303-8.992-21.978
	C217.641,321.01,221.079,313.258,221.079,304.709z M172.148,292.212h17.472c6.89,0,12.497,5.606,12.497,12.497
	s-5.606,12.497-12.497,12.497h-17.472V292.212z M189.619,361.162h-17.472v-24.993h17.472c6.89,0,12.497,5.606,12.497,12.497
	S196.51,361.162,189.619,361.162z"/>
<path style="fill:#F9B54C;" d="M221.079,304.709c0-17.348-14.114-31.46-31.46-31.46h-4.873v18.963h4.873
	c6.89,0,12.497,5.606,12.497,12.497s-5.606,12.497-12.497,12.497h-4.873v18.963h4.873c6.89,0,12.497,5.606,12.497,12.497
	s-5.606,12.497-12.497,12.497h-4.873v18.963h4.873c17.348,0,31.46-14.114,31.46-31.46c0-8.549-3.437-16.303-8.992-21.978
	C217.641,321.01,221.079,313.258,221.079,304.709z"/>
<path style="fill:#C1321F;" d="M343.897,374.398h-10.416c-26.467,0-47.999-21.532-47.999-47.999
	c0-26.467,21.532-47.999,47.999-47.999h10.416c5.236,0,9.482,4.246,9.482,9.482s-4.246,9.481-9.482,9.481h-10.416
	c-16.01,0-29.036,13.026-29.036,29.036s13.026,29.036,29.036,29.036h10.416c5.236,0,9.482,4.246,9.482,9.481
	S349.132,374.398,343.897,374.398z"/>
<g>
	<path style="fill:#A82116;" d="M333.481,297.363h10.416c5.236,0,9.482-4.246,9.482-9.482c0-5.236-4.246-9.481-9.482-9.481h-10.416
		c-2.31,0-4.579,0.174-6.801,0.491v19.309C328.866,297.674,331.136,297.363,333.481,297.363z"/>
	<path style="fill:#A82116;" d="M343.897,355.435h-10.416c-2.346,0-4.615-0.31-6.801-0.838v19.309
		c2.224,0.317,4.491,0.491,6.801,0.491h10.416c5.236,0,9.482-4.246,9.482-9.481S349.132,355.435,343.897,355.435z"/>
</g>
</svg>